<svg height="496pt" viewBox="0 0 496 496" width="496pt" xmlns="http://www.w3.org/2000/svg"><path d="m360 80c0 7.121094 3.039062 13.519531 8 17.839844v22.160156l-24.320312 6.960938-14.238282 4.078124c-10.320312 2.960938-17.441406 12.320313-17.441406 23.039063v32.882813c-19.761719-18.882813-32-45.519532-32-74.960938 0-57.441406 46.558594-104 104-104s104 46.558594 104 104c0 29.441406-12.238281 56.078125-32 74.960938v-32.882813c0-10.71875-7.121094-20.078125-17.441406-23.039063l-14.238282-4.078124-24.320312-6.960938v-22.160156c4.960938-4.320313 8-10.71875 8-17.839844v-16c0-6.640625-2.71875-12.640625-7.039062-16.960938-4.320313-4.320312-10.320313-7.039062-16.960938-7.039062-13.28125 0-24 10.71875-24 24zm0 0" fill="#e6e9ed"/><path d="m344 128c0 30.71875 12.238281 60.238281 33.921875 81.921875l6.078125 6.078125c-28 0-53.359375-11.039062-72-29.039062v-32.882813c0-10.71875 7.121094-20.078125 17.441406-23.039063l14.238282-4.078124zm0 0" fill="#b4dd7f"/><path d="m438.558594 131.039062c10.320312 2.960938 17.441406 12.320313 17.441406 23.039063v32.882813c-18.640625 18-44 29.039062-72 29.039062l6.078125-6.078125c21.683594-21.683594 33.921875-51.203125 33.921875-81.921875l.320312-1.039062zm0 0" fill="#b4dd7f"/><path d="m400 120 24.320312 6.960938-.320312 1.039062c0 30.71875-12.238281 60.238281-33.921875 81.921875l-6.078125 6.078125v-80zm0 0" fill="#8cc152"/><path d="m384 136v80l-6.078125-6.078125c-21.683594-21.683594-33.921875-51.203125-33.921875-81.921875l-.320312-1.039062 24.320312-6.960938zm0 0" fill="#8cc152"/><path d="m400 97.839844v22.160156l-16 16-16-16v-22.160156c4.238281 3.839844 9.839844 6.160156 16 6.160156s11.761719-2.320312 16-6.160156zm0 0" fill="#f0d0b4"/><path d="m368 97.839844c-4.960938-4.320313-8-10.71875-8-17.839844v-16c0-13.28125 10.71875-24 24-24 6.640625 0 12.640625 2.71875 16.960938 7.039062 4.320312 4.320313 7.039062 10.320313 7.039062 16.960938v16c0 7.121094-3.039062 13.519531-8 17.839844-4.238281 3.839844-9.839844 6.160156-16 6.160156s-11.761719-2.320312-16-6.160156zm0 0" fill="#f0d0b4"/><path d="m488 256c0 8.800781-7.199219 16-16 16-4.878906 0-9.359375-2.238281-12.238281-5.761719-2.402344-2.796875-3.761719-6.316406-3.761719-10.238281 0-8.800781 7.199219-16 16-16s16 7.199219 16 16zm0 0" fill="#e6e9ed"/><path d="m356.238281 461.761719c2.402344 2.796875 3.761719 6.316406 3.761719 10.238281 0 8.800781-7.199219 16-16 16s-16-7.199219-16-16 7.199219-16 16-16c4.878906 0 9.359375 2.238281 12.238281 5.761719zm0 0" fill="#e6e9ed"/><path d="m344 264c8.800781 0 16 7.199219 16 16 0 3.921875-1.359375 7.441406-3.761719 10.238281-2.878906 3.523438-7.359375 5.761719-12.238281 5.761719-8.800781 0-16-7.199219-16-16s7.199219-16 16-16zm0 0" fill="#e6e9ed"/><path d="m488 376v32l-32 24-32-24v-32l32-24zm0 0" fill="#fcd770"/><path d="m456 320v32l-32 24-32-24v-32l32-24zm0 0" fill="#fcd770"/><path d="m424 376v32l-32 24-32-24v-32l32-24zm0 0" fill="#ef7385"/><path d="m112 440h96v48h-96zm0 0" fill="#969faa"/><path d="m232 376h80v48c0 8.800781-7.199219 16-16 16h-272c-8.800781 0-16-7.199219-16-16v-48zm0 0" fill="#838f9b"/><path d="m312 376h-304v-152c0-8.839844 7.160156-16 16-16h72.078125l10.480469 16h106.882812l10.261719-16h72.296875c8.839844 0 16 7.160156 16 16zm0 0" fill="#69d6f4"/><g fill="#ef7385"><path d="m227.441406 326.71875-3.441406 1.28125h-128l-3.441406-1.28125c4.5625-11.917969 12.242187-21.839844 21.839844-30.71875h91.203124c9.597657 8.878906 17.277344 18.800781 21.839844 30.71875zm0 0"/><path d="m106.558594 224h106.882812c-13.839844 15.761719-33.601562 27.921875-53.441406 40-19.839844-12.078125-39.601562-24.238281-53.441406-40zm0 0"/><path d="m230.320312 160c1.039063 5.039062 1.679688 10.320312 1.679688 16s-.640625 10.960938-1.679688 16h-140.640624c-1.039063-5.039062-1.679688-10.320312-1.679688-16s.640625-10.960938 1.679688-16zm0 0"/><path d="m213.441406 128h-106.882812c13.839844-15.761719 33.601562-27.921875 53.441406-40 19.839844 12.078125 39.601562 24.238281 53.441406 40zm0 0"/><path d="m224 24 3.441406 1.28125c-4.5625 11.917969-12.242187 21.839844-21.839844 30.71875h-91.203124c-9.597657-8.878906-17.277344-18.800781-21.839844-30.71875l3.441406-1.28125zm0 0"/></g><path d="m296 200h-59.734375c.664063-2.078125 1.359375-4.128906 1.886719-6.382812 1.246094-6.015626 1.847656-11.785157 1.847656-17.617188s-.601562-11.601562-1.871094-17.761719c-2.882812-12.757812-8.976562-24.367187-18.671875-35.511719-12.058593-13.726562-28.394531-24.871093-44.210937-34.734374 12.730468-7.953126 25.296875-16.335938 35.785156-26.113282 11.433594-10.566406 19.242188-21.605468 23.847656-33.664062 3.402344-8.628906 5.121094-18.117188 5.121094-28.214844h-16c0 5.625-.695312 10.960938-2 16h-124c-1.304688-5.023438-2-10.367188-2-16h-16c0 10.097656 1.71875 19.585938 5.089844 28.136719 4.636718 12.128906 12.453125 23.167969 23.855468 33.710937 10.511719 9.800782 23.078126 18.183594 35.808594 26.136719-15.832031 9.863281-32.167968 21.015625-44.234375 34.757813-9.671875 11.121093-15.765625 22.730468-18.679687 35.632812-1.238282 6.023438-1.839844 11.792969-1.839844 17.625s.601562 11.601562 1.886719 17.832031c.511719 2.167969 1.203125 4.152344 1.847656 6.167969h-59.734375c-13.230469 0-24 10.769531-24 24v200c0 13.230469 10.769531 24 24 24h80v32h-48v16h208v-16h-48v-32h80c13.230469 0 24-10.769531 24-24v-200c0-13.230469-10.769531-24-24-24zm-178.273438 104h84.546876c5.320312 5.207031 9.582031 10.503906 12.878906 16h-110.304688c3.28125-5.480469 7.550782-10.785156 12.878906-16zm19.679688-16c7.113281-4.96875 14.707031-9.761719 22.59375-14.601562 7.878906 4.839843 15.472656 9.632812 22.59375 14.601562zm22.59375-33.375c-11.601562-7.082031-23.199219-14.410156-33.320312-22.625h66.648437c-10.121094 8.207031-21.71875 15.535156-33.328125 22.625zm49.558594-38.625h-99.117188c-3.050781-3.777344-5.730468-7.664062-7.777344-11.761719-.71875-1.359375-1.289062-2.8125-1.902343-4.238281h118.503906c-.609375 1.464844-1.1875 2.945312-1.90625 4.351562-2.054687 4.007813-4.75 7.878907-7.800781 11.648438zm-113.558594-40c0-2.664062.199219-5.328125.511719-8h126.976562c.3125 2.6875.511719 5.34375.511719 8 0 2.671875-.199219 5.335938-.511719 8h-126.976562c-.3125-2.6875-.511719-5.34375-.511719-8zm64-97.398438c-7.878906-4.839843-15.472656-9.632812-22.59375-14.601562h45.1875c-7.113281 4.96875-14.707031 9.761719-22.59375 14.601562zm0 18.773438c11.609375 7.089844 23.207031 14.425781 33.328125 22.625h-66.65625c10.121094-8.207031 21.71875-15.535156 33.328125-22.625zm49.550781 38.625c4.167969 5.207031 7.410157 10.527344 9.722657 16h-118.53125c2.320312-5.503906 5.554687-10.808594 9.707031-16zm-104.703125-104h110.304688c-3.289063 5.480469-7.558594 10.785156-12.886719 16h-84.539063c-5.3125-5.207031-9.582031-10.503906-12.878906-16zm-80.847656 184h67.054688c2.679687 4.558594 5.746093 9.039062 9.488281 13.28125 12.058593 13.726562 28.394531 24.871094 44.210937 34.734375-12.730468 7.953125-25.296875 16.335937-35.785156 26.113281-11.433594 10.566406-19.242188 21.605469-23.847656 33.664063-3.402344 8.621093-5.121094 18.109375-5.121094 28.207031h16c0-5.625.695312-10.960938 2-16h124c1.296875 5.023438 2 10.367188 2 16h16c0-10.097656-1.71875-19.585938-5.089844-28.136719-4.636718-12.128906-12.453125-23.167969-23.855468-33.710937-10.511719-9.800782-23.078126-18.183594-35.808594-26.136719 15.824218-9.863281 32.152344-21.007813 44.1875-34.710937 3.734375-4.226563 6.832031-8.710938 9.558594-13.304688h67.007812c4.414062 0 8 3.59375 8 8v144h-288v-144c0-4.40625 3.585938-8 8-8zm176 264h-80v-32h80zm96-48h-272c-4.414062 0-8-3.59375-8-8v-40h288v40c0 4.40625-3.585938 8-8 8zm0 0"/><path d="m272 400h16v16h-16zm0 0"/><path d="m240 400h16v16h-16zm0 0"/><path d="m208 400h16v16h-16zm0 0"/><path d="m384 224c29.128906 0 56.664062-11.113281 77.527344-31.257812 22.234375-21.238282 34.472656-49.917969 34.472656-80.742188 0-61.761719-50.238281-112-112-112s-112 50.238281-112 112c0 30.816406 12.230469 59.488281 34.457031 80.726562 20.886719 20.167969 48.421875 31.273438 77.542969 31.273438zm64-40.648438c-12.441406 11.222657-27.359375 18.871094-43.496094 22.375 15.625-19.445312 25.097656-43.46875 27.023438-68.382812l4.832031 1.382812c6.960937 2 11.640625 8.167969 11.640625 15.351563zm-56-66.664062-8 8-8-8v-5.832031c2.601562.671875 5.265625 1.144531 8 1.144531s5.398438-.472656 8-1.144531zm0 79.082031v-56.457031l10.328125-10.328125 13.433594 3.847656c-1.058594 22.894531-9.425781 45.128907-23.761719 62.9375zm8-115.769531c0 4.59375-1.910156 8.894531-5.257812 11.808594l-.109376.101562c-5.832031 5.273438-15.328124 5.378906-21.375-.101562-3.347656-2.914063-5.257812-7.214844-5.257812-11.808594v-16c0-8.824219 7.175781-16 16-16 4.257812 0 8.273438 1.664062 11.304688 4.695312s4.695312 7.039063 4.695312 11.304688zm-34.328125 48.984375 10.328125 10.328125v56.457031c-14.335938-17.808593-22.703125-40.042969-23.761719-62.9375zm-29.199219 8.359375c1.925782 24.902344 11.398438 48.929688 27.023438 68.382812-16.136719-3.511718-31.054688-11.152343-43.496094-22.375v-29.273437c0-7.183594 4.679688-13.351563 11.640625-15.34375zm47.527344-121.34375c52.9375 0 96 43.0625 96 96 0 19.222656-5.617188 37.449219-16 52.984375v-10.90625c0-14.167969-9.550781-26.804687-23.230469-30.726563l-32.769531-9.382812v-13.074219c5.03125-5.710937 8-13.0625 8-20.894531v-16c0-8.535156-3.328125-16.566406-9.382812-22.617188-6.050782-6.046874-14.089844-9.382812-22.617188-9.382812-17.648438 0-32 14.351562-32 32v16c0 7.871094 2.984375 15.246094 8 20.910156v13.058594l-32.769531 9.375c-13.679688 3.929688-23.230469 16.566406-23.230469 30.734375v10.90625c-10.375-15.527344-16-33.753906-16-52.984375 0-52.9375 43.0625-96 96-96zm0 0"/><path d="m472 280c13.230469 0 24-10.769531 24-24s-10.769531-24-24-24-24 10.769531-24 24c0 2.929688.519531 5.734375 1.488281 8.351562l-30.441406 25.367188-26.789063 20.097656-25.761718-21.441406c.984375-2.640625 1.503906-5.445312 1.503906-8.375 0-13.230469-10.769531-24-24-24s-24 10.769531-24 24 10.769531 24 24 24c4.398438 0 8.542969-1.304688 12.160156-3.457031l27.839844 23.199219v24.257812l-32 24v40l27.105469 20.328125-22.976563 19.121094c-3.632812-2.160157-7.761718-3.449219-12.128906-3.449219-13.230469 0-24 10.769531-24 24s10.769531 24 24 24 24-10.769531 24-24c0-2.929688-.519531-5.734375-1.488281-8.351562l30.441406-25.367188 27.046875-20.28125 32 24 40-30v-40l-32-24v-32l-27.105469-20.328125 22.976563-19.121094c3.632812 2.160157 7.761718 3.449219 12.128906 3.449219zm0-32c4.414062 0 8 3.59375 8 8s-3.585938 8-8 8c-2.34375 0-4.601562-1.054688-6.167969-2.96875-1.214843-1.414062-1.832031-3.109375-1.832031-5.03125 0-4.40625 3.585938-8 8-8zm-136 32c0-4.40625 3.585938-8 8-8s8 3.59375 8 8c0 1.921875-.617188 3.617188-1.953125 5.167969-1.445313 1.777343-3.703125 2.832031-6.046875 2.832031-4.414062 0-8-3.59375-8-8zm8 200c-4.414062 0-8-3.59375-8-8s3.585938-8 8-8c2.34375 0 4.601562 1.054688 6.167969 2.96875 1.214843 1.414062 1.832031 3.109375 1.832031 5.03125 0 4.40625-3.585938 8-8 8zm72-76-24 18-24-18v-24l24-18 24 18zm64 0-24 18-24-18v-24l24-18 24 18zm-32-56-24 18-24-18v-24l24-18 24 18zm0 0"/></svg>